<?xml version="1.0" encoding="utf-8"?>
<!-- Generator: Adobe Illustrator 16.0.0, SVG Export Plug-In . SVG Version: 6.00 Build 0)  -->
<!DOCTYPE svg PUBLIC "-//W3C//DTD SVG 1.1//EN" "http://www.w3.org/Graphics/SVG/1.1/DTD/svg11.dtd">
<svg version="1.1" id="Layer_1" xmlns="http://www.w3.org/2000/svg" xmlns:xlink="http://www.w3.org/1999/xlink" x="0px" y="0px"
	 width="385px" height="313px" viewBox="0.125 -0.552 385 313" enable-background="new 0.125 -0.552 385 313" xml:space="preserve">
<g id="Logo__x2014__FIXED">
	<g>
		<path d="M123.008,311.896c144.279,0,223.229-119.646,223.229-223.227c0-3.366,0-6.732-0.153-10.098
			c15.3-11.016,28.611-24.939,39.168-40.698c-14.076,6.273-29.223,10.404-45.135,12.393c16.218-9.639,28.609-25.092,34.578-43.452
			c-15.147,9.027-31.979,15.453-49.878,18.972C310.433,10.486,290.085,1,267.593,1c-43.299,0-78.489,35.19-78.489,78.489
			c0,6.12,0.765,12.087,1.989,17.901C125.915,94.177,68.081,62.812,29.372,15.382C22.64,27.01,18.815,40.474,18.815,54.856
			c0,27.234,13.923,51.255,34.884,65.331c-12.852-0.459-24.939-3.979-35.496-9.792c0,0.306,0,0.612,0,1.071
			c0,37.944,27.081,69.768,62.883,76.958c-6.579,1.837-13.464,2.756-20.655,2.756c-5.049,0-9.945-0.459-14.688-1.378
			c9.945,31.213,39.015,53.855,73.287,54.469c-26.928,21.112-60.741,33.66-97.461,33.66c-6.273,0-12.546-0.308-18.666-1.071
			C37.481,298.892,78.791,311.896,123.008,311.896"/>
	</g>
</g>
</svg>
